<?xml version="1.0" standalone="no"?>
<!DOCTYPE svg PUBLIC "-//W3C//DTD SVG 20010904//EN"
 "http://www.w3.org/TR/2001/REC-SVG-20010904/DTD/svg10.dtd">
<svg version="1.0" xmlns="http://www.w3.org/2000/svg"
 width="371.000000pt" height="371.000000pt" viewBox="0 0 371.000000 371.000000"
 preserveAspectRatio="xMidYMid meet">
<metadata>
Created by potrace 1.11, written by Peter Selinger 2001-2013
</metadata>
<g transform="translate(0.000000,371.000000) scale(0.100000,-0.100000)"
fill="#000000" stroke="none">
<path d="M1189 2616 c-13 -6 -50 -56 -84 -113 -32 -56 -63 -99 -67 -97 -13 8
-9 58 7 81 19 27 3 39 -19 14 -40 -44 -19 -129 37 -152 40 -17 92 -15 122 5
48 32 66 103 36 140 -8 9 -4 19 15 35 51 45 13 117 -47 87z m38 -32 c7 -20
-29 -57 -50 -52 -14 3 -14 7 4 36 23 35 36 40 46 16z m-37 -105 c16 -29 12
-56 -14 -85 -18 -22 -32 -28 -60 -27 -21 1 -40 3 -42 6 -5 5 8 28 62 114 16
25 39 22 54 -8z"/>
<path d="M1663 2598 c-5 -7 -27 -44 -47 -81 -43 -79 -91 -137 -113 -137 -11 0
-9 10 11 46 31 56 31 58 5 95 -11 16 -17 29 -13 29 5 0 2 6 -4 12 -16 16 -34
-8 -26 -35 8 -24 -91 -147 -118 -147 -13 0 -9 13 21 64 l30 50 -25 23 c-44 41
-97 -3 -146 -119 -11 -27 17 -50 46 -37 16 7 30 8 42 1 11 -5 26 -7 35 -3 24
9 71 52 103 94 40 52 53 46 22 -9 -29 -52 -32 -67 -13 -82 9 -8 22 -6 46 5 20
10 35 13 39 6 15 -21 45 -23 76 -5 38 23 76 33 76 21 0 -5 11 -16 24 -24 21
-14 28 -14 58 -2 37 16 70 45 110 97 37 47 44 33 12 -24 -29 -51 -27 -70 7
-79 18 -5 34 6 82 55 59 61 59 61 52 27 -10 -45 -21 -58 -45 -52 -11 3 -20 0
-20 -5 0 -14 35 -34 43 -25 3 3 24 5 46 5 37 -1 42 2 67 46 33 58 63 92 81 92
10 0 4 -19 -19 -60 -32 -59 -33 -61 -14 -75 17 -13 23 -13 50 3 30 17 32 17
49 -1 19 -19 49 -16 78 9 8 8 23 14 32 14 14 0 12 -9 -14 -54 -28 -51 -29 -55
-10 -53 13 1 29 18 46 48 25 46 26 47 52 34 23 -12 32 -12 62 1 41 17 78 50
68 60 -4 4 -17 -2 -30 -14 -38 -35 -39 -26 -4 38 29 56 31 62 15 73 -9 8 -32
11 -53 9 -32 -4 -40 -11 -66 -57 -27 -49 -54 -73 -67 -61 -2 3 2 16 10 28 27
42 28 67 3 84 -31 21 -67 5 -95 -43 -30 -50 -80 -103 -97 -103 -9 0 -2 22 23
66 35 63 36 68 19 80 -13 10 -23 11 -38 2 -20 -10 -20 -10 1 26 26 43 27 56 8
56 -8 0 -38 -42 -67 -92 -43 -77 -77 -123 -86 -115 -2 3 15 91 22 108 4 10 0
19 -9 22 -9 4 -28 -12 -54 -46 -50 -66 -91 -107 -108 -107 -9 0 -5 13 11 43
26 45 32 82 14 92 -5 4 -15 19 -20 33 -10 26 -11 26 -25 8 -9 -13 -11 -23 -4
-30 20 -20 -98 -146 -137 -146 -39 0 -29 37 12 44 61 12 103 96 54 109 -30 8
-63 -10 -84 -46 -24 -43 -56 -77 -71 -77 -8 0 -4 15 12 45 20 35 23 48 14 65
-6 11 -17 20 -25 20 -19 0 -18 10 0 34 8 11 15 23 15 28 0 13 -26 9 -37 -4z
m-314 -142 c-31 -54 -79 -96 -79 -70 0 14 62 113 73 117 22 7 25 -15 6 -47z
m331 42 c0 -21 -40 -79 -50 -73 -11 7 -6 36 12 64 14 23 38 28 38 9z m144 -22
c-7 -18 -42 -41 -51 -32 -3 2 5 19 17 36 23 32 47 29 34 -4z m576 24 c0 -18
-30 -70 -40 -70 -6 0 -10 -9 -10 -20 0 -20 -25 -38 -37 -27 -5 6 19 61 47 105
15 23 40 30 40 12z m132 -56 c-18 -32 -36 -50 -51 -52 -22 -3 -22 -3 -7 26 8
16 27 44 42 61 40 48 51 24 16 -35z m-912 -51 c0 -7 -7 -13 -15 -13 -16 0 -19
9 -9 35 5 13 8 14 15 3 5 -7 9 -19 9 -25z"/>
<path d="M360 1888 l0 -218 89 0 c112 0 114 2 112 120 -1 108 -2 97 1 190 0
41 -2 85 -6 98 -8 24 -6 24 -118 26 l-78 2 0 -218z m125 120 c-4 -13 -8 -34
-9 -47 -2 -13 -10 -28 -19 -33 -20 -11 -19 -15 -21 50 -2 51 -1 52 27 52 26 0
28 -3 22 -22z m0 -180 c-4 -13 -8 -32 -9 -44 -7 -64 -42 -51 -41 16 0 48 1 50
29 50 25 0 27 -3 21 -22z"/>
<path d="M709 2093 c-18 -13 -19 -27 -19 -199 0 -109 4 -193 10 -205 9 -16 22
-19 89 -19 58 0 82 4 91 15 9 11 13 65 14 185 1 174 -5 229 -27 231 -71 7
-141 3 -158 -8z m111 -76 c0 -8 -3 -17 -7 -21 -5 -4 -9 -62 -10 -129 -1 -67
-2 -123 -2 -125 -1 -2 -9 1 -18 7 -16 8 -18 27 -18 145 l0 136 28 0 c16 0 27
-5 27 -13z"/>
<path d="M1025 2101 c-3 -2 -5 -100 -5 -218 l0 -213 39 0 39 0 -2 86 c-1 82 5
107 25 87 7 -7 14 -153 10 -200 0 -7 -12 -13 -26 -13 -14 0 -25 -4 -25 -10 0
-5 19 -10 41 -10 40 0 41 1 37 30 -4 29 -3 30 34 30 l39 0 -7 38 c-11 60 -14
75 -20 108 -4 20 0 41 9 55 10 17 13 52 12 117 -1 82 -4 95 -20 105 -19 11
-171 18 -180 8z m125 -91 c0 -11 -5 -20 -10 -20 -6 0 -8 -11 -6 -25 3 -18 -1
-28 -15 -35 -10 -6 -19 -7 -20 -3 -1 4 -2 29 -3 56 -1 45 0 47 26 47 21 0 28
-5 28 -20z"/>
<path d="M1355 2087 c-23 -32 -22 -379 1 -401 23 -23 156 -23 175 0 18 22 20
387 3 404 -7 7 -46 13 -88 15 -68 2 -78 0 -91 -18z m115 -76 c0 -11 -4 -22 -8
-25 -4 -2 -7 -53 -7 -113 2 -107 -5 -136 -28 -127 -9 3 -12 43 -10 137 1 72 2
135 2 140 1 4 12 7 26 7 18 0 25 -5 25 -19z"/>
<path d="M1675 2101 c-3 -2 -5 -100 -5 -218 l0 -213 89 0 c70 0 91 3 102 16
19 23 20 387 2 405 -12 12 -178 21 -188 10z m125 -90 c0 -11 -4 -22 -8 -25 -4
-2 -7 -57 -7 -121 1 -64 -2 -118 -5 -120 -3 -2 -11 -1 -17 3 -12 8 -15 54 -14
195 1 86 1 87 26 87 18 0 25 -5 25 -19z"/>
<path d="M2009 2090 c0 -8 -2 -106 -2 -218 l-2 -202 38 0 c23 0 37 5 38 13 0
15 0 349 0 392 -1 28 -4 31 -36 31 -24 0 -35 -5 -36 -16z"/>
<path d="M2208 2051 c-2 -31 -2 -129 0 -218 l3 -163 37 0 37 0 -1 87 -1 88 18
-55 c10 -30 18 -79 18 -107 1 -50 0 -53 -24 -53 -14 0 -25 -4 -25 -10 0 -5 17
-10 38 -10 36 0 38 2 36 30 -2 28 0 30 32 30 l34 0 0 218 0 218 -37 -1 -38 -1
1 -77 c0 -42 -1 -77 -2 -77 -1 0 -13 33 -25 73 -12 39 -24 74 -26 76 -1 2 -18
5 -37 6 l-35 3 -3 -57z"/>
<path d="M2563 2097 c-22 -10 -23 -16 -23 -118 0 -75 4 -110 13 -116 6 -4 34
-10 61 -13 38 -4 50 -9 52 -24 2 -16 -2 -18 -37 -12 -22 3 -51 3 -64 0 -23 -6
-25 -11 -25 -63 0 -31 5 -62 12 -69 16 -16 160 -16 176 0 8 8 12 48 12 114 l0
102 33 6 c32 6 32 7 30 58 -3 71 -23 89 -23 21 0 -48 -2 -52 -27 -57 -27 -6
-71 -1 -80 8 -10 10 8 24 36 29 27 6 29 10 33 56 4 71 -7 82 -89 86 -37 1 -78
-2 -90 -8z m103 -87 c0 -11 -4 -20 -8 -20 -4 0 -8 -13 -8 -29 0 -36 -28 -51
-34 -18 -3 12 -4 37 -3 55 0 28 4 32 27 32 19 0 26 -5 26 -20z m-8 -226 c15
-5 15 -8 -7 -25 -27 -22 -38 -18 -38 15 0 16 4 23 13 20 8 -2 22 -7 32 -10z"/>
<path d="M2870 1888 l0 -218 38 0 38 0 -1 93 c-2 90 -2 91 13 57 9 -19 18 -70
20 -112 l4 -78 -26 0 c-14 0 -26 -5 -26 -11 0 -6 16 -9 38 -7 33 3 37 6 36 31
-1 25 2 27 37 27 22 0 39 1 39 3 0 1 -14 45 -31 97 -17 52 -31 104 -31 115 0
11 14 62 31 114 16 52 28 97 26 101 -2 4 -19 7 -37 6 -32 -1 -33 -3 -58 -84
-14 -45 -27 -82 -30 -82 -3 0 -6 34 -5 76 0 41 -2 78 -5 82 -3 4 -20 7 -37 8
l-33 1 0 -219z"/>
<path d="M3205 2102 c-3 -3 -5 -101 -5 -219 l0 -213 39 0 38 0 -1 217 -1 218
-32 1 c-18 1 -35 -1 -38 -4z"/>
<path d="M2127 2043 c-4 -3 -7 -98 -7 -210 l0 -203 -31 0 c-17 0 -28 -4 -24
-10 3 -5 22 -10 41 -10 30 0 34 3 35 28 3 102 1 404 -3 407 -3 3 -8 2 -11 -2z"/>
<path d="M2457 2043 c-4 -3 -7 -98 -7 -210 l0 -203 -30 0 c-16 0 -30 -4 -30
-10 0 -5 18 -10 40 -10 l40 0 0 220 c0 121 -1 220 -3 220 -2 0 -7 -3 -10 -7z"/>
<path d="M3115 2040 c-4 -7 -20 -53 -36 -102 l-27 -90 25 -81 c13 -45 28 -94
33 -109 8 -26 7 -28 -21 -28 -16 0 -29 -4 -29 -10 0 -5 19 -10 41 -10 35 0 40
3 36 18 -3 9 -18 58 -34 108 l-30 91 33 104 c18 57 29 108 25 112 -5 5 -12 3
-16 -3z"/>
<path d="M599 1955 c-1 -49 0 -135 1 -191 2 -128 -2 -134 -106 -134 -43 0 -74
-4 -74 -10 0 -6 36 -10 89 -10 109 0 117 7 114 101 -2 67 -2 107 -1 225 0 40
-5 80 -11 90 -8 15 -11 -1 -12 -71z"/>
<path d="M930 1848 c0 -229 5 -218 -105 -218 -42 0 -64 -4 -60 -10 3 -5 42
-10 85 -10 66 0 81 3 92 19 17 24 17 367 0 396 -9 16 -11 -24 -12 -177z"/>
<path d="M1262 1939 c-1 -75 -5 -106 -15 -113 -11 -7 -10 -24 4 -102 l16 -94
-28 0 c-16 0 -29 -4 -29 -10 0 -5 18 -10 41 -10 38 0 41 2 36 23 -20 78 -27
160 -16 173 16 19 18 187 3 216 -9 17 -12 2 -12 -83z"/>
<path d="M1583 1849 c0 -227 3 -222 -106 -217 -65 3 -84 -3 -51 -16 25 -9 147
-7 164 4 12 7 15 42 16 198 0 134 -3 194 -11 206 -10 13 -12 -23 -12 -175z"/>
<path d="M1914 1849 c0 -226 3 -219 -111 -219 -42 0 -73 -4 -73 -10 0 -6 36
-10 88 -10 124 0 119 -9 118 222 -1 116 -5 191 -12 198 -7 7 -10 -48 -10 -181z"/>
<path d="M3315 1835 l0 -205 -27 0 c-16 0 -28 -4 -28 -10 0 -5 17 -10 39 -10
l38 0 0 215 c0 153 -4 215 -12 215 -8 0 -11 -59 -10 -205z"/>
<path d="M3558 1915 l-27 -32 26 -25 26 -26 28 21 c36 26 36 37 2 69 l-28 25
-27 -32z"/>
<path d="M31 1916 c-19 -20 -21 -27 -10 -43 25 -41 44 -44 74 -13 l28 29 -29
25 c-36 31 -36 31 -63 2z"/>
<path d="M2778 1761 c4 -127 -1 -134 -104 -129 -57 2 -70 0 -62 -9 16 -19 162
-17 178 2 18 22 17 203 -1 221 -12 11 -14 -2 -11 -85z"/>
<path d="M128 1819 c-32 -32 -33 -35 -14 -42 7 -3 26 7 40 22 21 22 24 30 14
38 -9 7 -21 1 -40 -18z"/>
<path d="M3655 1820 c-20 -21 -26 -33 -18 -41 7 -7 19 -1 41 20 22 23 27 33
18 40 -9 8 -21 2 -41 -19z"/>
<path d="M1622 1364 c-24 -8 -77 -37 -119 -65 -42 -27 -86 -52 -99 -55 -51
-13 -82 13 -70 59 7 30 37 43 66 27 25 -13 26 1 2 23 -23 21 -42 21 -88 2 -92
-38 -73 -185 31 -234 123 -58 289 -45 418 33 l59 36 71 -39 c40 -22 92 -45
116 -51 103 -27 246 -13 317 31 38 23 76 95 70 130 -3 13 -5 29 -5 35 -2 20
-52 63 -82 69 -20 5 -38 1 -54 -9 -34 -22 -32 -38 1 -25 21 7 31 6 45 -7 36
-32 18 -84 -28 -84 -29 0 -66 18 -153 76 -36 24 -86 48 -112 55 -58 14 -129 5
-160 -21 -19 -15 -26 -16 -38 -6 -42 36 -119 44 -188 20z"/>
</g>
</svg>
